<svg width="16" height="16" viewBox="0 0 16 16" fill="none" xmlns="http://www.w3.org/2000/svg">
    <path fill-rule="evenodd" clip-rule="evenodd" d="M5 3.97748C7.76142 3.97748 10 3.31095 10 2.48874C10 1.66653 7.76142 1 5 1C2.23858 1 0 1.66653 0 2.48874C0 3.31095 2.23858 3.97748 5 3.97748ZM10 3.91576C8.89403 4.55341 7.06686 4.97 5.00005 4.97C2.93318 4.97 1.10596 4.55339 0 3.9157V5.06926C0 5.89147 2.23858 6.558 5 6.558C7.76142 6.558 10 5.89147 10 5.06926V3.91576ZM6.32119 7.49232C5.89574 7.53039 5.45367 7.55045 5.00005 7.55045C2.93318 7.55045 1.10596 7.13384 0 6.49616V7.72237C0 8.50447 2.23858 9.13848 5 9.13848C5.21103 9.13848 5.41901 9.13478 5.62317 9.12759C5.73611 8.54401 5.94369 7.99316 6.32119 7.49232ZM5.50995 10.1224C5.48794 10.5549 5.4922 10.9988 5.49651 11.4482C5.49767 11.5687 5.49883 11.6896 5.49949 11.8108C5.3352 11.8157 5.16858 11.8182 5 11.8182C2.23858 11.8182 0 11.1517 0 10.3294V9.07667C1.10596 9.71435 2.93318 10.131 5.00005 10.131C5.17176 10.131 5.34182 10.1281 5.50995 10.1224Z" fill="#CED0D6"/>
    <path d="M7.94446 11.625V11C7.94446 9.10152 9.31247 7.5625 11 7.5625C11.6149 7.5625 12.1873 7.76683 12.6667 8.11842" stroke="#548AF7" stroke-linecap="round"/>
    <path d="M9.33331 13.8816C9.81264 14.2332 10.3851 14.4375 11 14.4375C12.6875 14.4375 14.0555 12.8985 14.0555 11V10.375" stroke="#548AF7" stroke-linecap="round"/>
    <path d="M6.76593 10.5758L7.94444 11.9016L9.12295 10.5758" stroke="#548AF7" stroke-linecap="round"/>
    <path d="M12.8771 11.4242L14.0556 10.0984L15.2341 11.4242" stroke="#548AF7" stroke-linecap="round"/>
</svg>
