<svg width="16" height="16" viewBox="0 0 16 16" fill="none" xmlns="http://www.w3.org/2000/svg">
    <path fill-rule="evenodd" clip-rule="evenodd" d="M7.99998 14.0044C7.8954 14.0043 7.79026 14.0016 7.68463 13.996C4.7291 13.8411 2.38552 11.5725 2.04195 8.73179L3.89554 8.89396C4.28758 10.6991 5.84699 12.0928 7.78056 12.1942C7.85406 12.198 7.92721 12.2 7.99998 12.2V14.0044ZM3.63754 3.88333C4.80423 2.64981 6.48426 1.91664 8.31266 2.01246C11.2286 2.16528 13.5489 4.37557 13.9405 7.16285L12.0808 7.00015C11.6518 5.24657 10.1158 3.90506 8.22018 3.80572C6.92048 3.7376 5.72787 4.26788 4.9099 5.15567L6.99347 7.23919H1.99347V2.23929L3.63754 3.88333Z" fill="#6E6E6E"/>
    <path fill-rule="evenodd" clip-rule="evenodd" d="M9 9.61712C9.66358 9.97078 10.7599 10.2018 12 10.2018C13.2401 10.2018 14.3364 9.97078 15 9.61712C15 9.97466 15 10.1879 15 10.2569C15 10.7129 13.6569 11.0826 12 11.0826C10.3431 11.0826 9 10.7129 9 10.2569C9 10.1973 9 9.98401 9 9.61712ZM15 11.0483C15 11.4316 15 11.6583 15 11.7284C15 12.1621 13.6569 12.5138 12 12.5138C10.3431 12.5138 9 12.1621 9 11.7284C9 11.6679 9 11.4412 9 11.0483C9.66358 11.402 10.7599 11.633 12 11.633C13.2401 11.633 14.3364 11.402 15 11.0483ZM15 12.4795V13.1743C15 13.6303 13.6569 14 12 14C10.3431 14 9 13.6303 9 13.1743V12.4795C9.66358 12.8332 10.7599 13.0642 12 13.0642C13.2401 13.0642 14.3364 12.8332 15 12.4795ZM12 9.65138C10.3431 9.65138 9 9.2817 9 8.82569C9 8.36967 10.3431 8 12 8C13.6569 8 15 8.36967 15 8.82569C15 9.2817 13.6569 9.65138 12 9.65138Z" fill="#389FD6"/>
</svg>
